<?xml version="1.0" standalone="no"?>
<!DOCTYPE svg PUBLIC "-//W3C//DTD SVG 20010904//EN" "http://www.w3.org/TR/2001/REC-SVG-20010904/DTD/svg10.dtd">
<!-- Created using Krita: https://krita.org -->
<svg xmlns="http://www.w3.org/2000/svg" 
    xmlns:xlink="http://www.w3.org/1999/xlink"
    xmlns:krita="http://krita.org/namespaces/svg/krita"
    xmlns:sodipodi="http://sodipodi.sourceforge.net/DTD/sodipodi-0.dtd"
    width="259.2pt"
    height="259.2pt"
    viewBox="0 0 259.2 259.2">
<defs/>
<text id="shape0" krita:useRichText="true" transform="matrix(0.999999952904974 0 0 0.999999952904974 17.7014625809832 44.2936564505744)" fill="#000000" stroke="#000000" stroke-opacity="0" stroke-width="0" stroke-linecap="square" stroke-linejoin="bevel" font-family="LEMON MILK Light" font-size="40" font-size-adjust="0.441826" font-stretch="normal" letter-spacing="0" word-spacing="0"><tspan x="0">PSEUDO</tspan></text><text id="shape1" krita:useRichText="true" transform="matrix(0.999999952904974 0 0 0.999999952904974 3.10781235363748 254.919973212488)" fill="#000000" stroke="#000000" stroke-opacity="0" stroke-width="0" stroke-linecap="square" stroke-linejoin="bevel" font-family="LEMON MILK Light" font-size="40" font-size-adjust="0.441826" font-stretch="normal" letter-spacing="0" word-spacing="0"><tspan x="0">SERVICES</tspan></text><path id="shape2" transform="matrix(0.999999952904974 0 0 0.999999952904974 22.0617303273436 51.8450650830173)" fill="none" stroke="#000000" stroke-width="10.32" stroke-linecap="square" stroke-linejoin="bevel" d="M0 27.2378C0.868366 9.36209 11.598 0.311127 32.189 0.0848527C52.7799 -0.141421 102.956 0.0848527 182.718 0.763675C204.44 2.34759 215.414 13.2088 215.641 33.3472C215.867 53.4856 215.867 81.883 215.641 118.539C213.831 140.375 202.969 151.293 183.057 151.293"/><path id="shape3" transform="matrix(0.999999952904974 0 0 0.999999952904974 21.5526133782391 87.907510073569)" fill="none" stroke="#000000" stroke-width="10.32" stroke-linecap="square" stroke-linejoin="bevel" d="M0.167386 0L1.54144e-30 81.9678C-4.73695e-15 103.803 10.9177 114.834 32.7532 115.06"/><text id="shape4" krita:useRichText="true" transform="matrix(0.999999952904974 0 0 0.999999952904974 35.9297518227652 175.772666426603)" fill="#000000" stroke="#000000" stroke-opacity="0" stroke-width="0" stroke-linecap="square" stroke-linejoin="bevel" font-family="DESIGNER" font-size="120" font-size-adjust="0.737237" font-stretch="normal" letter-spacing="20" word-spacing="0"><tspan x="0">PS</tspan></text>
</svg>
